{"scene":0,"scenes":[{"nodes":[0]}],"asset":{"version":"2.0","generator":"https://github.com/mikedh/trimesh"},"accessors":[{"componentType":5125,"type":"SCALAR","bufferView":0,"count":1192890,"max":[198278],"min":[0]},{"componentType":5126,"type":"VEC3","byteOffset":0,"bufferView":1,"count":198279,"max":[0.39863404631614685,0.265695720911026,0.055462419986724854],"min":[-0.0271646436303854,-0.002400259720161557,-0.05546260625123978]},{"componentType":5121,"normalized":true,"type":"VEC4","byteOffset":0,"bufferView":2,"count":198279,"max":[244,239,229,255],"min":[25,25,25,255]}],"meshes":[{"name":"base_motor_holder_so101_v1.stl","extras":{"header":"processed"},"primitives":[{"attributes":{"POSITION":1,"COLOR_0":2},"indices":0,"mode":4}]}],"nodes":[{"name":"world","children":[1]},{"name":"base_motor_holder_so101_v1.stl","mesh":0}],"buffers":[{"uri":"gltf_buffer_0.bin","byteLength":4771560},{"uri":"gltf_buffer_1.bin","byteLength":2379348},{"uri":"gltf_buffer_2.bin","byteLength":793116}],"bufferViews":[{"buffer":0,"byteOffset":0,"byteLength":4771560},{"buffer":1,"byteOffset":0,"byteLength":2379348},{"buffer":2,"byteOffset":0,"byteLength":793116}]}